# xmcd
#
# Track frame offsets: 
#        150
#        674
#        14672
#        34349
#        49255
#        70806
#        89061
#        106323
#        125317
#        142826
#        156268
#        170747
#        187992
#        208124
#        227291
#        245995
#        268664
#        286698
#        301748
#        313897
#
# Disc length: 4366 seconds
#
# Revision: 0
# Processed by: cddbd v1.5.2PL0 Copyright (c) Steve Scherf et al.
# Submitted via: ExactAudioCopy v0.99pb4
#
DISCID=1c110c14
DTITLE=Various Artist - prevue promo 1048A-2
DYEAR=2000
DGENRE=pop
TTITLE0=blank - data
TTITLE1=JIm Brickman - The Love I Found In You
TTITLE2=Elton John with The Backstreet boys - Frlends Never Say Goodby
TTITLE2=e 
TTITLE3=Kellv Price - You Should've Told Me 
TTITLE4=Billy Cook - Forever Girl 
TTITLE5=Joan Osborne  - Safety In Numbers
TTITLE6=Sonique - It Feels So Good
TTITLE7=Melanie C feat.  Lisa "Left Eye" Lopes  - Never Be The Same A
TTITLE7=gain(single edit)
TTITLE8=I Melanie C Feat. Lisa "Left Eye" Lopes - Never Be The Same Ag
TTITLE8=ain(radio sedit) 
TTITLE9=Precious - Say It Again 
TTITLE10=DJ Jean - The Launch
TTITLE11=Tamia - Can't Go For That 
TTITLE12=Jay-Z feat.Memphis Bleek and Amil - Hey Papi
TTITLE13=Patty Larkin - Beg To Differ 
TTITLE14=Lou Reed -  Modern Dance(clean edit no shit)
TTITLE15=Grandaddy - The Crystal Lake 
TTITLE16=Full Devil Jacket - Where Did You Go?
TTITLE17=Radford  - Closer To Mvself 
TTITLE18=Slipknot - Spit It Out
TTITLE19=Apartment 26 - Backwards
EXTD=
EXTT0=
EXTT1=
EXTT2=
EXTT3=
EXTT4=
EXTT5=
EXTT6=
EXTT7=
EXTT8=
EXTT9=
EXTT10=
EXTT11=
EXTT12=
EXTT13=
EXTT14=
EXTT15=
EXTT16=
EXTT17=
EXTT18=
EXTT19=
PLAYORDER=
